{
    "asset" : {
        "generator" : "Khronos glTF Blender I/O v1.2.75",
        "version" : "2.0"
    },
    "scene" : 0,
    "scenes" : [
        {
            "name" : "Scene",
            "nodes" : [
                3
            ]
        }
    ],
    "nodes" : [
        {
            "name" : "BoneUp",
            "rotation" : [
                1.7227154813781453e-08,
                4.716135748594752e-08,
                0.009085219353437424,
                0.9999587535858154
            ],
            "scale" : [
                0.9999999403953552,
                0.9999999403953552,
                1
            ],
            "translation" : [
                3.660960423701454e-14,
                3.9946396350860596,
                1.4210854715202004e-14
            ]
        },
        {
            "children" : [
                0
            ],
            "name" : "BoneDown",
            "rotation" : [
                6.633036520042879e-08,
                -4.638090445041598e-08,
                -0.009085219353437424,
                0.9999587535858154
            ],
            "scale" : [
                0.9999999403953552,
                1,
                1
            ]
        },
        {
            "mesh" : 0,
            "name" : "Cube",
            "skin" : 0
        },
        {
            "children" : [
                2,
                1
            ],
            "name" : "Armature"
        }
    ],
    "animations" : [
        {
            "channels" : [
                {
                    "sampler" : 0,
                    "target" : {
                        "node" : 1,
                        "path" : "translation"
                    }
                },
                {
                    "sampler" : 1,
                    "target" : {
                        "node" : 1,
                        "path" : "rotation"
                    }
                },
                {
                    "sampler" : 2,
                    "target" : {
                        "node" : 1,
                        "path" : "scale"
                    }
                },
                {
                    "sampler" : 3,
                    "target" : {
                        "node" : 0,
                        "path" : "translation"
                    }
                },
                {
                    "sampler" : 4,
                    "target" : {
                        "node" : 0,
                        "path" : "rotation"
                    }
                },
                {
                    "sampler" : 5,
                    "target" : {
                        "node" : 0,
                        "path" : "scale"
                    }
                }
            ],
            "name" : "XRotationAnimation",
            "samplers" : [
                {
                    "input" : 8,
                    "interpolation" : "LINEAR",
                    "output" : 9
                },
                {
                    "input" : 8,
                    "interpolation" : "LINEAR",
                    "output" : 10
                },
                {
                    "input" : 8,
                    "interpolation" : "LINEAR",
                    "output" : 11
                },
                {
                    "input" : 8,
                    "interpolation" : "LINEAR",
                    "output" : 12
                },
                {
                    "input" : 8,
                    "interpolation" : "LINEAR",
                    "output" : 13
                },
                {
                    "input" : 8,
                    "interpolation" : "LINEAR",
                    "output" : 14
                }
            ]
        },
        {
            "channels" : [
                {
                    "sampler" : 0,
                    "target" : {
                        "node" : 1,
                        "path" : "translation"
                    }
                },
                {
                    "sampler" : 1,
                    "target" : {
                        "node" : 1,
                        "path" : "rotation"
                    }
                },
                {
                    "sampler" : 2,
                    "target" : {
                        "node" : 1,
                        "path" : "scale"
                    }
                },
                {
                    "sampler" : 3,
                    "target" : {
                        "node" : 0,
                        "path" : "translation"
                    }
                },
                {
                    "sampler" : 4,
                    "target" : {
                        "node" : 0,
                        "path" : "rotation"
                    }
                },
                {
                    "sampler" : 5,
                    "target" : {
                        "node" : 0,
                        "path" : "scale"
                    }
                }
            ],
            "name" : "YRotationAnimation",
            "samplers" : [
                {
                    "input" : 8,
                    "interpolation" : "LINEAR",
                    "output" : 15
                },
                {
                    "input" : 8,
                    "interpolation" : "LINEAR",
                    "output" : 16
                },
                {
                    "input" : 8,
                    "interpolation" : "LINEAR",
                    "output" : 17
                },
                {
                    "input" : 8,
                    "interpolation" : "LINEAR",
                    "output" : 18
                },
                {
                    "input" : 8,
                    "interpolation" : "LINEAR",
                    "output" : 19
                },
                {
                    "input" : 8,
                    "interpolation" : "LINEAR",
                    "output" : 20
                }
            ]
        },
        {
            "channels" : [
                {
                    "sampler" : 0,
                    "target" : {
                        "node" : 1,
                        "path" : "translation"
                    }
                },
                {
                    "sampler" : 1,
                    "target" : {
                        "node" : 1,
                        "path" : "rotation"
                    }
                },
                {
                    "sampler" : 2,
                    "target" : {
                        "node" : 1,
                        "path" : "scale"
                    }
                },
                {
                    "sampler" : 3,
                    "target" : {
                        "node" : 0,
                        "path" : "translation"
                    }
                },
                {
                    "sampler" : 4,
                    "target" : {
                        "node" : 0,
                        "path" : "rotation"
                    }
                },
                {
                    "sampler" : 5,
                    "target" : {
                        "node" : 0,
                        "path" : "scale"
                    }
                }
            ],
            "name" : "ZRotationAnimation",
            "samplers" : [
                {
                    "input" : 8,
                    "interpolation" : "LINEAR",
                    "output" : 21
                },
                {
                    "input" : 8,
                    "interpolation" : "LINEAR",
                    "output" : 22
                },
                {
                    "input" : 8,
                    "interpolation" : "LINEAR",
                    "output" : 23
                },
                {
                    "input" : 8,
                    "interpolation" : "LINEAR",
                    "output" : 24
                },
                {
                    "input" : 8,
                    "interpolation" : "LINEAR",
                    "output" : 25
                },
                {
                    "input" : 8,
                    "interpolation" : "LINEAR",
                    "output" : 26
                }
            ]
        }
    ],
    "materials" : [
        {
            "doubleSided" : true,
            "emissiveFactor" : [
                0,
                0,
                0
            ],
            "name" : "Material",
            "pbrMetallicRoughness" : {
                "baseColorTexture" : {
                    "index" : 0,
                    "texCoord" : 0
                },
                "metallicFactor" : 0,
                "roughnessFactor" : 0.4000000059604645
            }
        }
    ],
    "meshes" : [
        {
            "name" : "Cube",
            "primitives" : [
                {
                    "attributes" : {
                        "POSITION" : 0,
                        "NORMAL" : 1,
                        "TANGENT" : 2,
                        "TEXCOORD_0" : 3,
                        "JOINTS_0" : 4,
                        "WEIGHTS_0" : 5
                    },
                    "indices" : 6,
                    "material" : 0
                }
            ]
        }
    ],
    "textures" : [
        {
            "source" : 0
        }
    ],
    "images" : [
        {
            "mimeType" : "image/jpeg",
            "name" : "cloth",
            "uri" : "cloth.jpg"
        }
    ],
    "skins" : [
        {
            "inverseBindMatrices" : 7,
            "joints" : [
                1,
                0
            ],
            "name" : "Armature"
        }
    ],
    "accessors" : [
        {
            "bufferView" : 0,
            "componentType" : 5126,
            "count" : 2301,
            "max" : [
                1,
                8,
                1
            ],
            "min" : [
                -1,
                0,
                -1
            ],
            "type" : "VEC3"
        },
        {
            "bufferView" : 1,
            "componentType" : 5126,
            "count" : 2301,
            "type" : "VEC3"
        },
        {
            "bufferView" : 2,
            "componentType" : 5126,
            "count" : 2301,
            "type" : "VEC4"
        },
        {
            "bufferView" : 3,
            "componentType" : 5126,
            "count" : 2301,
            "type" : "VEC2"
        },
        {
            "bufferView" : 4,
            "componentType" : 5123,
            "count" : 2301,
            "type" : "VEC4"
        },
        {
            "bufferView" : 5,
            "componentType" : 5126,
            "count" : 2301,
            "type" : "VEC4"
        },
        {
            "bufferView" : 6,
            "componentType" : 5123,
            "count" : 3552,
            "type" : "SCALAR"
        },
        {
            "bufferView" : 7,
            "componentType" : 5126,
            "count" : 2,
            "type" : "MAT4"
        },
        {
            "bufferView" : 8,
            "componentType" : 5126,
            "count" : 121,
            "max" : [
                5
            ],
            "min" : [
                0
            ],
            "type" : "SCALAR"
        },
        {
            "bufferView" : 9,
            "componentType" : 5126,
            "count" : 121,
            "type" : "VEC3"
        },
        {
            "bufferView" : 10,
            "componentType" : 5126,
            "count" : 121,
            "type" : "VEC4"
        },
        {
            "bufferView" : 11,
            "componentType" : 5126,
            "count" : 121,
            "type" : "VEC3"
        },
        {
            "bufferView" : 12,
            "componentType" : 5126,
            "count" : 121,
            "type" : "VEC3"
        },
        {
            "bufferView" : 13,
            "componentType" : 5126,
            "count" : 121,
            "type" : "VEC4"
        },
        {
            "bufferView" : 14,
            "componentType" : 5126,
            "count" : 121,
            "type" : "VEC3"
        },
        {
            "bufferView" : 15,
            "componentType" : 5126,
            "count" : 121,
            "type" : "VEC3"
        },
        {
            "bufferView" : 16,
            "componentType" : 5126,
            "count" : 121,
            "type" : "VEC4"
        },
        {
            "bufferView" : 17,
            "componentType" : 5126,
            "count" : 121,
            "type" : "VEC3"
        },
        {
            "bufferView" : 18,
            "componentType" : 5126,
            "count" : 121,
            "type" : "VEC3"
        },
        {
            "bufferView" : 19,
            "componentType" : 5126,
            "count" : 121,
            "type" : "VEC4"
        },
        {
            "bufferView" : 20,
            "componentType" : 5126,
            "count" : 121,
            "type" : "VEC3"
        },
        {
            "bufferView" : 21,
            "componentType" : 5126,
            "count" : 121,
            "type" : "VEC3"
        },
        {
            "bufferView" : 22,
            "componentType" : 5126,
            "count" : 121,
            "type" : "VEC4"
        },
        {
            "bufferView" : 23,
            "componentType" : 5126,
            "count" : 121,
            "type" : "VEC3"
        },
        {
            "bufferView" : 24,
            "componentType" : 5126,
            "count" : 121,
            "type" : "VEC3"
        },
        {
            "bufferView" : 25,
            "componentType" : 5126,
            "count" : 121,
            "type" : "VEC4"
        },
        {
            "bufferView" : 26,
            "componentType" : 5126,
            "count" : 121,
            "type" : "VEC3"
        }
    ],
    "bufferViews" : [
        {
            "buffer" : 0,
            "byteLength" : 27612,
            "byteOffset" : 0
        },
        {
            "buffer" : 0,
            "byteLength" : 27612,
            "byteOffset" : 27612
        },
        {
            "buffer" : 0,
            "byteLength" : 36816,
            "byteOffset" : 55224
        },
        {
            "buffer" : 0,
            "byteLength" : 18408,
            "byteOffset" : 92040
        },
        {
            "buffer" : 0,
            "byteLength" : 18408,
            "byteOffset" : 110448
        },
        {
            "buffer" : 0,
            "byteLength" : 36816,
            "byteOffset" : 128856
        },
        {
            "buffer" : 0,
            "byteLength" : 7104,
            "byteOffset" : 165672
        },
        {
            "buffer" : 0,
            "byteLength" : 128,
            "byteOffset" : 172776
        },
        {
            "buffer" : 0,
            "byteLength" : 484,
            "byteOffset" : 172904
        },
        {
            "buffer" : 0,
            "byteLength" : 1452,
            "byteOffset" : 173388
        },
        {
            "buffer" : 0,
            "byteLength" : 1936,
            "byteOffset" : 174840
        },
        {
            "buffer" : 0,
            "byteLength" : 1452,
            "byteOffset" : 176776
        },
        {
            "buffer" : 0,
            "byteLength" : 1452,
            "byteOffset" : 178228
        },
        {
            "buffer" : 0,
            "byteLength" : 1936,
            "byteOffset" : 179680
        },
        {
            "buffer" : 0,
            "byteLength" : 1452,
            "byteOffset" : 181616
        },
        {
            "buffer" : 0,
            "byteLength" : 1452,
            "byteOffset" : 183068
        },
        {
            "buffer" : 0,
            "byteLength" : 1936,
            "byteOffset" : 184520
        },
        {
            "buffer" : 0,
            "byteLength" : 1452,
            "byteOffset" : 186456
        },
        {
            "buffer" : 0,
            "byteLength" : 1452,
            "byteOffset" : 187908
        },
        {
            "buffer" : 0,
            "byteLength" : 1936,
            "byteOffset" : 189360
        },
        {
            "buffer" : 0,
            "byteLength" : 1452,
            "byteOffset" : 191296
        },
        {
            "buffer" : 0,
            "byteLength" : 1452,
            "byteOffset" : 192748
        },
        {
            "buffer" : 0,
            "byteLength" : 1936,
            "byteOffset" : 194200
        },
        {
            "buffer" : 0,
            "byteLength" : 1452,
            "byteOffset" : 196136
        },
        {
            "buffer" : 0,
            "byteLength" : 1452,
            "byteOffset" : 197588
        },
        {
            "buffer" : 0,
            "byteLength" : 1936,
            "byteOffset" : 199040
        },
        {
            "buffer" : 0,
            "byteLength" : 1452,
            "byteOffset" : 200976
        }
    ],
    "buffers" : [
        {
            "byteLength" : 202428,
            "uri" : "animateCube.bin"
        }
    ]
}
